#!OML:ASF E:\acrobat2\Project_11_07_03\Capture day 1\Session 1\Acrobat.ASF
:FULLY-SPECIFIED
:DEGREES
321
root 12.0144 16.4647 17.5977 -22.2381 -34.3317 -320.815
lowerback 16.3669 7.02179 10.3388
upperback 8.60521 10.5925 -6.56338
thorax 3.65209 6.22018 -14.2444
lowerneck 0.811112 3.88516 2.08195
upperneck 14.2682 7.81236 -20.0048
head 4.96266 3.01243 -6.33921
rclavicle -8.34896e-014 1.04958e-013
rhumerus 58.6703 -7.77809 -48.1832
rradius 57.9506
rwrist -31.5198
rhand -21.6934 -49.9005
rfingers 7.12502
rthumb 4.70479 -79.8283
lclavicle -8.34896e-014 1.04958e-013
lhumerus -53.0428 10.2165 71.9271
lradius 12.4181
lwrist 8.59003
lhand -41.1098 -30.4001
lfingers 7.12502
lthumb -14.0374 -0.894143
rfemur -26.2628 -19.8644 -13.9498
rtibia 66.2453
rfoot -29.6426 -1.47808
rtoes 1.87144
lfemur -47.5544 -6.54438 -3.12828
ltibia 24.094
lfoot 8.50435 -0.544908
ltoes 46.9964
322
root 12.0567 16.3129 17.8425 -21.536 -37.6354 -322.049
lowerback 15.9662 6.61032 11.7513
upperback 8.20904 10.1937 -6.05709
thorax 3.46679 6.00553 -14.4253
lowerneck 0.614782 4.42912 2.23497
upperneck 13.937 8.5011 -20.1039
head 4.99188 3.35174 -6.35066
rclavicle -3.81667e-014 -1.90833e-014
rhumerus 56.974 -6.09067 -49.3035
rradius 56.6946
rwrist -30.6172
rhand -21.5815 -49.7856
rfingers 7.12502
rthumb 4.81288 -79.711
lclavicle -3.81667e-014 -1.90833e-014
lhumerus -51.1524 8.65932 71.2599
lradius 13.4391
lwrist 8.15389
lhand -41.0215 -30.5506
lfingers 7.12502
lthumb -13.9524 -1.03879
rfemur -28.2861 -18.0659 -11.3611
rtibia 67.9622
rfoot -30.8254 -0.846797
rtoes -0.672468
lfemur -46.7286 -6.71971 -2.84659
ltibia 24.2324
lfoot 12.2289 0.268315
ltoes 48.8001
323
root 12.1009 16.1727 18.053 -18.8891 -41.2137 -325.562
lowerback 15.6799 6.03079 14.585
upperback 7.54548 9.79091 -5.08269
thorax 3.10374 5.79333 -14.9258
lowerneck 0.367446 4.87842 2.44954
upperneck 13.6258 9.05146 -20.127
head 5.01959 3.62612 -6.35163
rclavicle -1.03368e-013 -2.54444e-014
rhumerus 55.0865 -4.4468 -50.5388
rradius 55.4517
rwrist -29.6586
rhand -21.1315 -49.9258
rfingers 7.12502
rthumb 5.24736 -79.8408
lclavicle -1.03368e-013 -2.54444e-014
lhumerus -49.5329 6.97046 70.0663
lradius 14.1026
lwrist 6.82021
lhand -41.4275 -30.8519
lfingers 7.12502
lthumb -14.3436 -1.36739
rfemur -30.5102 -16.0288 -6.63876
rtibia 69.4568
rfoot -32.3204 -0.967273
rtoes -3.78733
lfemur -46.9057 -6.23847 -0.640551
ltibia 25.0782
lfoot 15.4075 1.03706
ltoes 49.0332
324
root 12.1167 16.0106 18.48 -27.8752 -41.1396 -315.67
lowerback 15.7547 6.38658 7.8755
upperback 8.81253 9.27076 -6.70792
thorax 3.3136 5.34968 -12.8194
lowerneck 0.26425 5.16146 2.67111
upperneck 13.0081 9.28671 -19.9818
head 4.88139 3.78324 -6.31421
rclavicle 9.78021e-014 -2.22639e-014
rhumerus 53.0646 -3.0073 -51.9974
rradius 54.2229
rwrist -28.7412
rhand -20.4649 -49.7903
rfingers 7.12502
rthumb 5.89097 -79.6884
lclavicle 9.78021e-014 -2.22639e-014
lhumerus -47.8899 5.39513 68.2722
lradius 14.2744
lwrist 4.86149
lhand -42.4125 -31.6412
lfingers 7.12502
lthumb -15.2925 -2.22658
rfemur -28.1477 -16.1342 -17.0933
rtibia 70.085
rfoot -32.5631 3.58724
rtoes -7.17955
lfemur -41.9473 -10.1536 -11.4564
ltibia 23.808
lfoot 17.7351 1.70476
ltoes 48.6195
325
root 12.1544 15.8604 18.7426 -27.3179 -44.5518 -316.935
lowerback 15.5211 6.06792 9.4756
upperback 8.48553 9.03433 -6.0995
thorax 3.18101 5.24451 -13.0241
lowerneck 1.80395 5.72788 1.97929
upperneck 11.3905 9.59355 -18.9286
head 4.08087 4.13116 -5.86525
rclavicle 4.05521e-014 -4.13472e-014
rhumerus 50.7096 -1.76626 -53.484
rradius 53.0081
rwrist -28.173
rhand -20.2159 -49.4221
rfingers 7.12502
rthumb 6.13141 -79.3133
lclavicle 4.05521e-014 -4.13472e-014
lhumerus -46.4519 3.10671 66.5688
lradius 14.5774
lwrist 4.273
lhand -42.6049 -31.2254
lfingers 7.12502
lthumb -15.4778 -1.825
rfemur -29.576 -14.537 -14.5269
rtibia 71.3975
rfoot -33.8493 4.01096
rtoes -9.81935
lfemur -41.6082 -10.4266 -10.5974
ltibia 24.6809
lfoot 19.9303 2.33647
ltoes 47.3405
326
root 12.1966 15.7103 19.0198 -27.3657 -47.6159 -317.381
lowerback 15.3606 5.81891 10.3732
upperback 8.34215 8.79314 -5.6456
thorax 3.11018 5.11908 -12.9984
lowerneck 0.0678757 5.63363 2.88633
upperneck 11.8397 9.60123 -19.2025
head 4.5734 4.02968 -6.05292
rclavicle 3.97569e-015 6.67916e-014
rhumerus 48.4374 -0.752091 -54.9504
rradius 51.7766
rwrist -27.962
rhand -19.9315 -49.4937
rfingers 7.12502
rthumb 6.40591 -79.3768
lclavicle 3.97569e-015 6.67916e-014
lhumerus -45.2573 0.343978 65.052
lradius 15.0317
lwrist 4.87557
lhand -42.4168 -30.6199
lfingers 7.12502
lthumb -15.2967 -1.20554
rfemur -30.9443 -13.368 -12.9743
rtibia 72.9736
rfoot -34.9219 4.52995
rtoes -12.472
lfemur -41.2496 -11.1599 -10.42
ltibia 25.7334
lfoot 21.6628 2.93986
ltoes 47.7507
327
root 12.2346 15.5608 19.3115 -27.3096 -50.8579 -317.774
lowerback 14.98 5.61582 11.168
upperback 8.29676 8.57474 -5.17895
thorax 3.25082 5.0185 -12.8624
lowerneck -0.658791 5.96097 2.86394
upperneck 11.5867 9.94972 -18.602
head 4.63743 4.19614 -5.80425
rclavicle -5.88403e-014 -6.36111e-015
rhumerus 46.3615 0.257061 -56.0934
rradius 50.6284
rwrist -28.4084
rhand -19.2671 -49.9922
rfingers 7.12502
rthumb 7.04728 -79.8549
lclavicle -5.88403e-014 -6.36111e-015
lhumerus -44.1693 -2.1238 63.1582
lradius 15.2219
lwrist 5.32456
lhand -42.4413 -30.5603
lfingers 7.12502
lthumb -15.3202 -1.1478
rfemur -32.567 -12.3725 -11.398
rtibia 74.6602
rfoot -35.6517 4.89505
rtoes -14.3481
lfemur -41.0832 -11.8121 -10.0286
ltibia 27.012
lfoot 21.9014 4.14659
ltoes 54.036
328
root 12.2671 15.4106 19.6189 -27.3361 -54.1987 -318.039
lowerback 14.6748 5.45274 11.8038
upperback 8.14564 8.39592 -4.71207
thorax 3.21593 4.91264 -12.657
lowerneck -1.07435 6.18129 2.89861
upperneck 11.1738 10.0894 -17.7998
head 4.56271 4.29979 -5.52406
rclavicle -4.29375e-014 1.59028e-014
rhumerus 45.156 0.294785 -60.0804
rradius 48.3619
rwrist -26.439
rhand -18.2626 -50.5475
rfingers 7.12502
rthumb 8.01693 -80.3755
lclavicle -4.29375e-014 1.59028e-014
lhumerus -43.491 -4.21435 60.717
lradius 15.1366
lwrist 5.33043
lhand -42.149 -30.4814
lfingers 7.12502
lthumb -15.0387 -1.04756
rfemur -34.2341 -11.5434 -9.96017
rtibia 76.2782
rfoot -35.9093 5.41379
rtoes -15.2797
lfemur -41.143 -12.4438 -9.41118
ltibia 29.7002
lfoot 11.4486 4.28843
ltoes 56.8295
329
root 12.3017 15.2511 19.9656 -31.229 -56.4886 -314.55
lowerback 14.8392 5.43473 10.4
upperback 8.40672 8.16817 -4.82528
thorax 3.1189 4.72446 -11.9713
lowerneck -1.21069 6.2574 3.14957
upperneck 10.4247 9.98874 -17.1572
head 4.32798 4.32124 -5.35879
rclavicle 7.95139e-015 2.8625e-014
rhumerus 42.3694 1.31365 -60.5087
rradius 47.1669
rwrist -27.7285
rhand -18.549 -50.7932
rfingers 7.12502
rthumb 7.74045 -80.6316
lclavicle 7.95139e-015 2.8625e-014
lhumerus -42.8569 -5.38544 57.4834
lradius 14.9421
lwrist 4.34521
lhand -41.3033 -29.3403
lfingers 7.12502
lthumb -14.2239 0.152602
rfemur -35.0328 -11.2481 -11.7164
rtibia 77.7475
rfoot -35.2702 7.351
rtoes -15.3907
lfemur -40.6945 -15.3914 -10.1576
ltibia 35.2395
lfoot -4.46165 -12.4035
ltoes 54.4865
330
root 12.3642 15.1052 20.2665 -31.5714 -59.4617 -314.777
lowerback 14.9605 5.08017 11.0318
upperback 8.46832 7.75634 -4.38969
thorax 3.03651 4.50959 -11.8326
lowerneck -0.464244 6.46218 2.76449
upperneck 8.74599 9.91934 -16.2064
head 3.62361 4.43844 -5.02708
rclavicle 3.33958e-014 6.36111e-015
rhumerus 39.6536 2.29963 -60.7507
rradius 46.3281
rwrist -28.9246
rhand -18.5305 -51.3193
rfingers 7.12502
rthumb 7.75837 -81.157
lclavicle 3.33958e-014 6.36111e-015
lhumerus -42.006 -6.16866 53.9945
lradius 14.5022
lwrist 3.18769
lhand -40.9285 -30.4614
lfingers 7.12502
lthumb -13.8627 -0.943387
rfemur -36.5702 -10.9714 -10.4552
rtibia 79.4964
rfoot -34.337 7.92278
rtoes -16.6267
lfemur -42.2909 -17.8682 -7.51395
ltibia 41.9587
lfoot -19.5483 -12.9218
ltoes -18.4679
331
root 12.4676 14.9887 20.477 -21.2845 -63.8982 -325.381
lowerback 14.7238 4.20639 15.8702
upperback 7.77241 7.21025 -2.68428
thorax 2.74741 4.30481 -12.661
lowerneck -0.274938 6.62792 2.63632
upperneck 7.36992 9.88885 -15.4302
head 3.13514 4.5266 -4.78191
rclavicle 6.99722e-014 -5.08889e-014
rhumerus 37.2871 2.95768 -61.5667
rradius 45.1173
rwrist -29.0845
rhand -18.2898 -51.6343
rfingers 7.12502
rthumb 7.99062 -81.4633
lclavicle 6.99722e-014 -5.08889e-014
lhumerus -41.2233 -7.73098 51.1678
lradius 13.7895
lwrist 3.67103
lhand -40.0975 -29.0675
lfingers 7.12502
lthumb -13.0618 0.503495
rfemur -39.8039 -10.2971 -2.74984
rtibia 81.6311
rfoot -33.4195 6.87676
rtoes -18.0764
lfemur -47.9408 -16.6334 1.31637
ltibia 48.7969
lfoot -20.5618 -13.0681
ltoes -16.0439
332
root 12.5216 14.8359 20.7634 -28.6995 -65.358 -318.246
lowerback 15.469 4.36635 12.1938
upperback 8.26787 6.97788 -3.00964
thorax 2.28364 4.0175 -10.9733
lowerneck -0.76573 6.54653 2.78133
upperneck 6.74916 9.66885 -14.9898
head 2.99901 4.44402 -4.66777
rclavicle 1.17681e-013 -4.45278e-014
rhumerus 34.8935 2.83558 -62.5257
rradius 43.6585
rwrist -28.714
rhand -18.267 -51.494
rfingers 7.12502
rthumb 8.01264 -81.3221
lclavicle 1.17681e-013 -4.45278e-014
lhumerus -39.9706 -8.41023 47.7216
lradius 12.7446
lwrist 2.69992
lhand -39.699 -29.2046
lfingers 7.12502
lthumb -12.6776 0.39065
rfemur -40.9589 -10.5211 -6.21855
rtibia 83.6291
rfoot -32.4141 6.11461
rtoes -18.7774
lfemur -49.8188 -17.3737 -0.947567
ltibia 54.484
lfoot -16.8131 -15.0394
ltoes 8.4586
333
root 12.5515 14.7295 20.9738 -27.758 -67.5955 -319.511
lowerback 15.5304 4.284 11.7216
upperback 8.33839 6.79027 -2.23423
thorax 2.08662 3.84669 -9.83346
lowerneck -1.2753 6.25401 2.92396
upperneck 6.40144 9.20652 -14.6892
head 2.93152 4.22123 -4.60669
rclavicle 7.79236e-014 -2.22639e-014
rhumerus 31.9928 2.20252 -63.0686
rradius 42.6137
rwrist -28.523
rhand -18.4841 -51.2914
rfingers 7.12502
rthumb 7.80315 -81.1274
lclavicle 7.79236e-014 -2.22639e-014
lhumerus -38.2249 -7.70643 43.4606
lradius 11.7286
lwrist 0.421098
lhand -40.2984 -28.9434
lfingers 7.12502
lthumb -13.2554 0.615112
rfemur -42.6403 -10.6117 -4.76025
rtibia 85.4946
rfoot -31.2424 5.20308
rtoes -19.3916
lfemur -52.0453 -15.6354 0.75531
ltibia 58.7733
lfoot -0.538739 -20.9099
ltoes 53.4854
334
root 12.5634 14.6319 21.173 -29.0273 -69.484 -318.794
lowerback 15.6352 4.24326 10.15
upperback 8.62148 6.49751 -1.64023
thorax 1.95326 3.59783 -8.27247
lowerneck -0.519507 6.21128 1.75159
upperneck 4.7788 8.84952 -12.6644
head 2.39563 4.19324 -4.3044
rclavicle -2.06736e-014 3.18055e-014
rhumerus 29.058 1.82465 -63.6415
rradius 41.7535
rwrist -28.1856
rhand -19.1978 -51.6705
rfingers 7.12502
rthumb 7.11419 -81.5309
lclavicle -2.06736e-014 3.18055e-014
lhumerus -36.8882 -7.11647 39.4679
lradius 11.2221
lwrist -0.621696
lhand -40.1113 -27.9839
lfingers 7.12502
lthumb -13.0751 1.5863
rfemur -43.8841 -10.8338 -4.21727
rtibia 87.2695
rfoot -30.1266 3.94457
rtoes -20.643
lfemur -51.9588 -14.6952 1.74359
ltibia 60.539
lfoot 1.10182 -22.1453
ltoes 53.2793
335
root 12.5637 14.5457 21.3727 -31.1434 -71.3465 -317.536
lowerback 15.7522 4.09866 8.47438
upperback 9.08156 6.03673 -1.31072
thorax 2.02557 3.28313 -6.92473
lowerneck -0.232317 6.28007 2.06944
upperneck 3.67246 8.79255 -12.0406
head 1.94577 4.23602 -4.15469
rclavicle 4.92986e-014 -4.13472e-014
rhumerus 26.4351 1.63039 -64.6032
rradius 40.7555
rwrist -27.5789
rhand -20.0975 -52.1447
rfingers 7.12502
rthumb 6.24568 -82.0326
lclavicle 4.92986e-014 -4.13472e-014
lhumerus -36.1837 -8.3315 36.3892
lradius 11.5463
lwrist 0.931663
lhand -40.3807 -25.9723
lfingers 7.12502
lthumb -13.3348 3.58103
rfemur -44.5282 -11.1219 -3.81405
rtibia 88.7533
rfoot -29.1584 2.46588
rtoes -20.7963
lfemur -50.6732 -14.1154 2.50102
ltibia 61.4211
lfoot 2.02635 -23.5298
ltoes 52.8754
